<svg xmlns="http://www.w3.org/2000/svg" version="1.1" xmlns:xlink="http://www.w3.org/1999/xlink" viewBox="0 0 200 200"><rect width="200" height="200" fill="url('#gradient')"></rect><defs><linearGradient id="gradient" gradientTransform="rotate(45 0.5 0.5)"><stop offset="0%" stop-color="#dee90b"></stop><stop offset="100%" stop-color="#d9e241"></stop></linearGradient></defs><g><g fill="#1b3855" transform="matrix(1.7337973850061141,0,0,1.7337973850061141,9.066038190152327,109.78681712446158)" stroke="#0e5278" stroke-width="0.2"><path d="M0.54-5.24L0.54-5.36Q0.54-6.96 1.06-8.19Q1.59-9.42 2.58-10.09Q3.56-10.76 4.87-10.76L4.87-10.76Q6.52-10.76 7.45-9.65L7.45-9.65L7.57-10.57L10.56-10.57L10.56-0.40Q10.56 1.00 9.91 2.03Q9.26 3.06 8.03 3.61Q6.80 4.16 5.18 4.16L5.18 4.16Q4.01 4.16 2.92 3.72Q1.84 3.28 1.26 2.58L1.26 2.58L2.64 0.64Q3.55 1.73 5.06 1.73L5.06 1.73Q7.25 1.73 7.25-0.52L7.25-0.52L7.25-0.85Q6.30 0.20 4.85 0.20L4.85 0.20Q2.92 0.20 1.73-1.28Q0.54-2.76 0.54-5.24L0.54-5.24ZM3.84-5.16L3.84-5.16Q3.84-3.86 4.33-3.10Q4.81-2.34 5.69-2.34L5.69-2.34Q6.76-2.34 7.25-3.06L7.25-3.06L7.25-7.50Q6.77-8.22 5.71-8.22L5.71-8.22Q4.83-8.22 4.34-7.44Q3.84-6.65 3.84-5.16ZM18.82 0L18.72-1.14Q17.68 0.20 15.90 0.20L15.90 0.20Q14.16 0.20 13.27-0.82Q12.37-1.83 12.37-3.72L12.37-3.72L12.37-10.57L15.66-10.57L15.66-3.70Q15.66-2.34 16.98-2.34L16.98-2.34Q18.12-2.34 18.59-3.15L18.59-3.15L18.59-10.57L21.90-10.57L21.90 0L18.82 0ZM28.82 0.20L28.82 0.20Q26.39 0.20 24.88-1.25Q23.38-2.71 23.38-5.03L23.38-5.03L23.38-5.30Q23.38-6.92 23.98-8.16Q24.58-9.40 25.73-10.08Q26.88-10.76 28.47-10.76L28.47-10.76Q30.69-10.76 31.98-9.38Q33.27-8.00 33.27-5.53L33.27-5.53L33.27-4.25L26.73-4.25Q26.90-3.36 27.50-2.85Q28.10-2.34 29.04-2.34L29.04-2.34Q30.61-2.34 31.48-3.44L31.48-3.44L32.99-1.66Q32.37-0.81 31.25-0.31Q30.12 0.20 28.82 0.20ZM28.45-8.22L28.45-8.22Q27.00-8.22 26.73-6.31L26.73-6.31L30.05-6.31L30.05-6.56Q30.07-7.35 29.65-7.79Q29.23-8.22 28.45-8.22ZM40.13-2.97L40.13-2.97Q40.13-3.39 39.69-3.64Q39.25-3.90 38.02-4.17Q36.79-4.44 35.99-4.89Q35.19-5.33 34.77-5.97Q34.35-6.60 34.35-7.42L34.35-7.42Q34.35-8.88 35.55-9.82Q36.75-10.76 38.69-10.76L38.69-10.76Q40.78-10.76 42.05-9.81Q43.32-8.87 43.32-7.32L43.32-7.32L40.02-7.32Q40.02-8.59 38.68-8.59L38.68-8.59Q38.16-8.59 37.81-8.31Q37.46-8.02 37.46-7.59L37.46-7.59Q37.46-7.15 37.89-6.88Q38.32-6.60 39.26-6.43Q40.21-6.25 40.92-6.01L40.92-6.01Q43.30-5.19 43.30-3.07L43.30-3.07Q43.30-1.62 42.02-0.71Q40.73 0.20 38.69 0.20L38.69 0.20Q37.33 0.20 36.27-0.29Q35.21-0.78 34.61-1.62Q34.01-2.46 34.01-3.39L34.01-3.39L37.09-3.39Q37.11-2.66 37.58-2.32Q38.05-1.98 38.78-1.98L38.78-1.98Q39.45-1.98 39.79-2.26Q40.13-2.53 40.13-2.97ZM50.37-2.97L50.37-2.97Q50.37-3.39 49.93-3.64Q49.49-3.90 48.26-4.17Q47.03-4.44 46.23-4.89Q45.43-5.33 45.01-5.97Q44.59-6.60 44.59-7.42L44.59-7.42Q44.59-8.88 45.79-9.82Q46.99-10.76 48.94-10.76L48.94-10.76Q51.03-10.76 52.29-9.81Q53.56-8.87 53.56-7.32L53.56-7.32L50.26-7.32Q50.26-8.59 48.93-8.59L48.93-8.59Q48.41-8.59 48.06-8.31Q47.71-8.02 47.71-7.59L47.71-7.59Q47.71-7.15 48.13-6.88Q48.56-6.60 49.51-6.43Q50.45-6.25 51.16-6.01L51.16-6.01Q53.54-5.19 53.54-3.07L53.54-3.07Q53.54-1.62 52.26-0.71Q50.98 0.20 48.94 0.20L48.94 0.20Q47.58 0.20 46.51-0.29Q45.45-0.78 44.85-1.62Q44.26-2.46 44.26-3.39L44.26-3.39L47.33-3.39Q47.35-2.66 47.82-2.32Q48.29-1.98 49.02-1.98L49.02-1.98Q49.70-1.98 50.03-2.26Q50.37-2.53 50.37-2.97ZM60.09-10.57L63.17-10.57L63.28-9.33Q64.40-10.76 66.30-10.76L66.30-10.76Q68.30-10.76 69.00-9.17L69.00-9.17Q70.08-10.76 72.11-10.76L72.11-10.76Q75.32-10.76 75.41-6.88L75.41-6.88L75.41 0L72.11 0L72.11-6.67Q72.11-7.48 71.84-7.85Q71.56-8.22 70.84-8.22L70.84-8.22Q69.86-8.22 69.38-7.35L69.38-7.35L69.39-7.22L69.39 0L66.09 0L66.09-6.65Q66.09-7.48 65.83-7.85Q65.57-8.22 64.82-8.22L64.82-8.22Q63.88-8.22 63.38-7.35L63.38-7.35L63.38 0L60.09 0L60.09-10.57ZM82.40 0.20L82.40 0.20Q79.97 0.20 78.47-1.25Q76.96-2.71 76.96-5.03L76.96-5.03L76.96-5.30Q76.96-6.92 77.56-8.16Q78.16-9.40 79.32-10.08Q80.47-10.76 82.05-10.76L82.05-10.76Q84.28-10.76 85.57-9.38Q86.86-8.00 86.86-5.53L86.86-5.53L86.86-4.25L80.31-4.25Q80.49-3.36 81.08-2.85Q81.68-2.34 82.63-2.34L82.63-2.34Q84.19-2.34 85.07-3.44L85.07-3.44L86.57-1.66Q85.96-0.81 84.83-0.31Q83.70 0.20 82.40 0.20ZM82.03-8.22L82.03-8.22Q80.59-8.22 80.31-6.31L80.31-6.31L83.63-6.31L83.63-6.56Q83.65-7.35 83.23-7.79Q82.81-8.22 82.03-8.22ZM95.21-3.19L95.21-3.19Q95.99-3.19 96.50-2.73Q97.02-2.27 97.02-1.54Q97.02-0.82 96.50-0.36Q95.99 0.11 95.21 0.11L95.21 0.11Q94.41 0.11 93.90-0.36Q93.39-0.83 93.39-1.54Q93.39-2.26 93.90-2.72Q94.41-3.19 95.21-3.19ZM95.21-10.99L95.21-10.99Q95.99-10.99 96.50-10.52Q97.02-10.06 97.02-9.34Q97.02-8.61 96.50-8.15Q95.99-7.69 95.21-7.69L95.21-7.69Q94.41-7.69 93.90-8.15Q93.39-8.62 93.39-9.34Q93.39-10.05 93.90-10.52Q94.41-10.99 95.21-10.99ZM104.36-5.94L104.36-5.51Q104.36-3.21 103.68-1.15Q103.01 0.91 101.82 2.39Q100.63 3.87 99.26 4.39L99.26 4.39L98.63 2.77Q99.99 1.76 100.73-0.35Q101.47-2.46 101.50-5.21L101.50-5.21L101.50-5.80Q101.50-8.74 100.76-10.90Q100.01-13.06 98.63-14.06L98.63-14.06L99.26-15.68Q100.63-15.15 101.80-13.70Q102.98-12.25 103.66-10.21Q104.34-8.17 104.36-5.94L104.36-5.94Z"></path></g></g></svg>